<svg xmlns="http://www.w3.org/2000/svg" width="900" height="420" viewBox="0 0 900 420">
  <style>
    .box{fill:#f7f4ee;stroke:#3d352e;stroke-width:2;rx:12;ry:12}
    .gate{fill:#fff7d6;stroke:#8a6d00;stroke-width:2;rx:12;ry:12}
    .ok{fill:#e8f5e9;stroke:#1b5e20;stroke-width:2;rx:12;ry:12}
    .stop{fill:#ffebee;stroke:#b71c1c;stroke-width:2;rx:12;ry:12}
    text{font-family:Arial, sans-serif;fill:#24201c;font-size:16px}
    .title{font-size:22px;font-weight:700}
    .small{font-size:13px}
    .arrow{stroke:#3d352e;stroke-width:2;marker-end:url(#arrow)}
  </style>
  <defs><marker id="arrow" markerWidth="10" markerHeight="10" refX="9" refY="3" orient="auto" markerUnits="strokeWidth"><path d="M0,0 L0,6 L9,3 z" fill="#3d352e"/></marker></defs>
  <text x="40" y="35" class="title">Atlas Performance Growth Decision — Conditional Hybrid</text>
  <rect x="40" y="65" width="240" height="80" class="box"/>
  <text x="60" y="95">Atlas repaired research</text>
  <text x="60" y="118" class="small">#392-#396 complete; trust unproven</text>
  <line x1="280" y1="105" x2="345" y2="105" class="arrow"/>
  <rect x="345" y="65" width="230" height="80" class="gate"/>
  <text x="365" y="95">Gate 1: #219 + baseline</text>
  <text x="365" y="118" class="small">Harness + post-repair research</text>
  <line x1="575" y1="105" x2="640" y2="105" class="arrow"/>
  <rect x="640" y="65" width="220" height="80" class="ok"/>
  <text x="660" y="95">Proceed with #387</text>
  <text x="660" y="118" class="small">Paper/backtest sizing only</text>
  <line x1="460" y1="145" x2="460" y2="210" class="arrow"/>
  <rect x="345" y="210" width="230" height="80" class="stop"/>
  <text x="365" y="240">If still 0 signal</text>
  <text x="365" y="263" class="small">Stop strategy work; diagnose/retire</text>
  <rect x="40" y="210" width="240" height="80" class="box"/>
  <text x="60" y="240">10-20% research spike</text>
  <text x="60" y="263" class="small">Prediction markets / NRL only</text>
  <line x1="160" y1="145" x2="160" y2="210" class="arrow"/>
  <line x1="280" y1="250" x2="345" y2="250" class="arrow"/>
  <rect x="640" y="210" width="220" height="80" class="gate"/>
  <text x="660" y="240">Gate 2: Clear edge?</text>
  <text x="660" y="263" class="small">&gt;55% OOS or liquid signal fit</text>
  <line x1="575" y1="250" x2="640" y2="250" class="arrow"/>
  <rect x="40" y="325" width="820" height="55" class="stop"/>
  <text x="60" y="350">Red lines: no live config promotion, no approval flip, no exposure increase, no threshold softening</text>
  <text x="60" y="370" class="small">Build a new project only after gates pass; otherwise kill the spike and return bandwidth to Atlas.</text>
</svg>
